<svg xmlns="http://www.w3.org/2000/svg" fill="none" viewBox="0 0 328 310" height="310" width="328">
<g clip-path="url(#clip0_28976_84485)">
<path style="fill:white;fill-opacity:1;" fill="white" d="M89.4316 13.0529C88.8526 17.2195 88.6044 21.5463 88.6044 25.9532C88.6044 71.7853 120.868 103.595 184.981 121.383L202.933 126.031C210.792 128.114 216.335 129.396 219.561 130.678C222.788 131.559 226.924 132.761 231.06 134.524C239.83 137.889 242.146 142.617 242.146 148.065C242.146 158.241 231.557 163.369 210.792 163.369C182.665 163.369 163.307 150.629 152.718 125.63L73.8789 167.616C90.0107 213.448 138.406 242.294 208.476 242.294C220.306 242.294 231.391 241.492 241.815 239.89L0.5 310L89.4316 13.0529Z"></path>
<path style="fill:white;fill-opacity:1;" fill="white" d="M250.019 41.4685C241.189 20.4502 226.363 9.65706 205.456 9.65706C189.213 9.65706 180.884 16.555 180.884 25.5628C180.884 31.9738 184.632 36.7618 191.546 40.1701C198.959 43.5785 212.869 47.8795 233.776 53.479C246.687 57.0497 252.517 58.5104 261.846 61.9999L327.233 0H326.733L250.019 41.4685Z" clip-rule="evenodd" fill-rule="evenodd"></path>
</g>
<defs>
<clipPath id="clip0_28976_84485">
<rect transform="translate(0.5)" style="fill:white;fill-opacity:1;" fill="white" height="310" width="327"></rect>
</clipPath>
</defs>
</svg>
