<svg xmlns="http://www.w3.org/2000/svg" fill="none" viewBox="0 0 32 32" height="32" width="32">
<g clip-path="url(#clip0_27214_8597)">
<rect fill="url(#paint0_linear_27214_8597)" height="32" width="32"></rect>
<path fill="white" d="M18.3932 7.17035C19.5936 7.17035 20.4449 7.82679 20.9519 9.10512L25.3567 6.58301H25.3854L21.631 10.3538C21.1666 10.1698 20.8532 10.0786 20.295 9.91606C20.2093 9.89112 20.1179 9.86449 20.0193 9.8356C18.8188 9.49504 18.0201 9.23345 17.5945 9.02615C17.1975 8.81886 16.9823 8.52765 16.9823 8.13774C16.9823 7.58988 17.4606 7.17035 18.3932 7.17035ZM11.6838 8.16147C11.6838 7.89344 11.698 7.63028 11.7313 7.37688L6.625 25.4372L20.4809 21.1731C19.8824 21.2705 19.2459 21.3193 18.5666 21.3193C14.5433 21.3193 11.7645 19.5649 10.8383 16.7774L15.3651 14.2238C15.9731 15.7443 17.0846 16.5191 18.6996 16.5191C19.8919 16.5191 20.4999 16.2072 20.4999 15.5883C20.4999 15.2569 20.3669 14.9694 19.8634 14.7647C19.6259 14.6575 19.3884 14.5844 19.2031 14.5308C19.0646 14.4725 18.8518 14.4143 18.5647 14.3356C18.4678 14.3091 18.3623 14.2802 18.2484 14.2482L17.2176 13.9655C13.5363 12.8837 11.6838 10.949 11.6838 8.16147Z" clip-rule="evenodd" fill-rule="evenodd"></path>
</g>
<defs>
<linearGradient gradientUnits="userSpaceOnUse" y2="32" x2="32" y1="0" x1="0" id="paint0_linear_27214_8597">
<stop stop-color="#00D1FF"></stop>
<stop stop-color="#0695D7" offset="1"></stop>
</linearGradient>
<clipPath id="clip0_27214_8597">
<rect fill="white" rx="6" height="32" width="32"></rect>
</clipPath>
</defs>
</svg>
